<svg width="13" height="13" viewBox="0 0 13 13" fill="none" xmlns="http://www.w3.org/2000/svg">
<path d="M7.4826 1.70958L7.48228 1.70994L6.9877 2.26592L6.42733 2.89584L5.86696 2.26592L5.37239 1.70994L5.37157 1.70902C4.35101 0.557976 2.78413 0.435183 1.75891 1.3881C0.488766 2.57097 0.412421 4.73995 1.56038 6.035L7.4826 1.70958ZM7.4826 1.70958C8.50615 0.557464 10.071 0.435447 11.0959 1.38821L7.4826 1.70958ZM6.4179 11.5212C6.41798 11.5211 6.41808 11.5212 6.41819 11.5211L6.4179 11.5212ZM6.4179 11.5212L6.41749 11.5214C6.41748 11.5214 6.41754 11.5214 6.41767 11.5213C6.41773 11.5213 6.41781 11.5212 6.4179 11.5212ZM6.41817 11.507L1.56068 6.03534L11.0959 1.38828C12.366 2.57125 12.4421 4.74001 11.2919 6.03484L11.2918 6.035L6.43398 11.507C6.43095 11.5104 6.42829 11.513 6.42608 11.515C6.42386 11.513 6.4212 11.5104 6.41817 11.507Z" stroke="black" stroke-width="1.5"/>
</svg>
