<svg width="16" height="16" viewBox="0 0 16 16" fill="none" xmlns="http://www.w3.org/2000/svg">
<path d="M9.17653 2.00604L9.17621 2.00641L8.5606 2.69844L8.00023 3.32837L7.43986 2.69844L6.82425 2.00641L6.82343 2.00549C5.49447 0.506612 3.4263 0.327505 2.06439 1.59335C0.40836 3.13546 0.311718 5.94926 1.80498 7.63374L9.17653 2.00604ZM9.17653 2.00604C10.5091 0.506101 12.5746 0.327767 13.9362 1.59347L9.17653 2.00604ZM7.85161 14.4448L1.80528 7.63408L13.9363 1.59359C15.5922 3.13581 15.6886 5.94933 14.1925 7.63358L14.1924 7.63374L8.14573 14.4448C8.08857 14.5092 8.03437 14.5227 7.99867 14.5227C7.963 14.5227 7.90885 14.5092 7.85174 14.445C7.85169 14.4449 7.85165 14.4449 7.85161 14.4448Z" stroke="#FF6B00" stroke-width="1.5"/>
</svg>
