<svg width="92" height="30" viewBox="0 0 92 30" fill="none" xmlns="http://www.w3.org/2000/svg">
<circle cx="15" cy="15" r="15" fill="#1C1C1C"/>
<path d="M12 21C10.6314 21.0007 9.43589 20.0751 9.09375 18.75H7.5V17.25H9.0945C9.48423 15.7406 10.9651 14.7812 12.502 15.0424C14.0388 15.3037 15.1195 16.6985 14.9886 18.2519C14.8578 19.8053 13.5589 20.9996 12 21ZM12 16.5C11.1805 16.5008 10.5134 17.1591 10.5017 17.9785C10.4899 18.7979 11.1379 19.475 11.957 19.4993C12.7761 19.5237 13.4631 18.8861 13.5 18.0675V18.3675V18C13.5 17.1716 12.8284 16.5 12 16.5ZM22.5 18.75H15.75V17.25H22.5V18.75ZM15.75 15C14.3817 15.0004 13.1866 14.0748 12.8445 12.75H7.5V11.25H12.8445C13.2342 9.74059 14.7151 8.78119 16.252 9.04243C17.7888 9.30366 18.8695 10.6985 18.7386 12.2519C18.6078 13.8053 17.3089 14.9996 15.75 15ZM15.75 10.5C14.9305 10.5008 14.2634 11.1591 14.2517 11.9785C14.2399 12.7979 14.8879 13.475 15.707 13.4993C16.5261 13.5237 17.2131 12.8861 17.25 12.0675V12.3675V12C17.25 11.1716 16.5784 10.5 15.75 10.5ZM22.5 12.75H19.5V11.25H22.5V12.75Z" fill="white"/>
<path d="M40.928 21H42.624V16.28H45.024V14.68H42.624V11.4H45.664V9.8H40.928V21ZM46.9749 21H51.7909V19.4H48.6709V16.12H51.1509V14.52H48.6709V11.4H51.7909V9.8H46.9749V21ZM57.0775 21H58.8055L56.9495 9.8H54.6775L52.8215 21H54.5175L54.8855 18.52H56.7095L57.0775 21ZM55.1095 16.888L55.7975 12.2L56.4855 16.888H55.1095ZM58.8996 11.4H60.7556V21H62.4516V11.4H64.3076V9.8H58.8996V11.4ZM68.1915 21.16C69.7435 21.16 70.7995 20.104 70.7995 18.536V9.8H69.1355V18.536C69.1355 19.192 68.7355 19.56 68.1915 19.56C67.6475 19.56 67.2475 19.192 67.2475 18.536V9.8H65.5515V18.536C65.5515 20.104 66.6395 21.16 68.1915 21.16ZM78.1523 21L76.7283 15.992C77.4643 15.544 77.8963 14.744 77.8963 13.704V12.472C77.8963 10.856 76.8563 9.8 75.2403 9.8H72.5843V21H74.2803V16.376H75.1603L76.3923 21H78.1523ZM74.2803 11.4H75.1603C75.8163 11.4 76.2003 11.784 76.2003 12.44V13.736C76.2003 14.392 75.8163 14.776 75.1603 14.776H74.2803V11.4ZM79.5374 21H84.3534V19.4H81.2334V16.12H83.7134V14.52H81.2334V11.4H84.3534V9.8H79.5374V21ZM85.7718 21H88.4278C90.0438 21 91.0838 19.944 91.0838 18.328V12.472C91.0838 10.856 90.0438 9.8 88.4278 9.8H85.7718V21ZM87.4678 19.4V11.4H88.3478C89.0038 11.4 89.3878 11.784 89.3878 12.44V18.36C89.3878 19.016 89.0038 19.4 88.3478 19.4H87.4678Z" fill="black"/>
</svg>
