<svg width="134" height="37" viewBox="0 0 134 37" fill="none" xmlns="http://www.w3.org/2000/svg">
<path d="M19.15 0.999998V5.4H10.3C6.93333 5.4 5.25 6.76666 5.25 9.5C5.25 10.9667 5.98333 12.2167 7.45 13.25C8.95 14.25 10.9667 15.2167 13.5 16.15C14.6333 16.5833 15.6 17.0333 16.4 17.5C17.2 17.9333 18 18.5167 18.8 19.25C19.6 19.9833 20.2 20.9333 20.6 22.1C21 23.2333 21.2 24.55 21.2 26.05C21.2 27.7167 20.85 29.2167 20.15 30.55C19.45 31.85 18.55 32.8833 17.45 33.65C16.35 34.3833 15.2167 34.95 14.05 35.35C12.9167 35.7167 11.8 35.9167 10.7 35.95C10.2333 35.9833 9.56667 36 8.7 36H0.9V31.6H8.55C10.8167 31.6 12.6667 31.1333 14.1 30.2C15.5333 29.2333 16.25 27.8333 16.25 26C16.25 25.1 16.05 24.3167 15.65 23.65C15.25 22.95 14.6667 22.35 13.9 21.85C13.1667 21.35 12.4 20.9167 11.6 20.55C10.8333 20.1833 9.9 19.8 8.8 19.4C8.5 19.3 8.26667 19.2167 8.1 19.15C2.86667 17.15 0.25 13.8833 0.25 9.35C0.25 6.55 1.15 4.46666 2.95 3.1C4.75 1.7 7.1 0.999998 10 0.999998H19.15ZM35.8953 36H31.1953V0.999998H35.8953V15.7H51.0953V0.999998H55.7953V36H51.0953V20.1H35.8953V36ZM94.6371 18.65C94.6038 16.7833 94.3204 15.0167 93.7871 13.35C93.2871 11.6833 92.5371 10.2333 91.5371 9C90.5704 7.73333 89.3871 6.73333 87.9871 6C86.5871 5.26666 85.0038 4.9 83.2371 4.9C81.4704 4.9 79.8871 5.26666 78.4871 6C77.0871 6.73333 75.8871 7.73333 74.8871 9C73.9204 10.2333 73.1704 11.6833 72.6371 13.35C72.1371 15.0167 71.8704 16.7833 71.8371 18.65C71.8704 20.55 72.1371 22.3167 72.6371 23.95C73.1704 25.5833 73.9204 27 74.8871 28.2C75.8871 29.4 77.0871 30.35 78.4871 31.05C79.8871 31.75 81.4704 32.1 83.2371 32.1C85.0038 32.1 86.5871 31.75 87.9871 31.05C89.3871 30.35 90.5704 29.4 91.5371 28.2C92.5371 27 93.2871 25.5833 93.7871 23.95C94.3204 22.3167 94.6038 20.55 94.6371 18.65ZM66.7871 18.65C66.8204 15.8833 67.2371 13.3833 68.0371 11.15C68.8371 8.91667 69.9538 7.01667 71.3871 5.45C72.8204 3.85 74.5371 2.63333 76.5371 1.8C78.5371 0.933332 80.7704 0.499998 83.2371 0.499998C85.6704 0.499998 87.8871 0.933332 89.8871 1.8C91.9204 2.63333 93.6538 3.85 95.0871 5.45C96.5204 7.01667 97.6371 8.91667 98.4371 11.15C99.2371 13.3833 99.6538 15.8833 99.6871 18.65C99.6538 21.4167 99.2371 23.9 98.4371 26.1C97.6704 28.3 96.5704 30.1667 95.1371 31.7C93.7038 33.2333 91.9704 34.4167 89.9371 35.25C87.9371 36.0833 85.7038 36.5 83.2371 36.5C80.7704 36.5 78.5204 36.0833 76.4871 35.25C74.4871 34.4167 72.7704 33.2333 71.3371 31.7C69.9038 30.1667 68.7871 28.3 67.9871 26.1C67.2204 23.9 66.8204 21.4167 66.7871 18.65ZM115.153 36H110.453V13C110.453 9.06667 111.503 6 113.603 3.8C115.736 1.6 118.553 0.499998 122.053 0.499998C125.786 0.499998 128.67 1.56666 130.703 3.7C132.77 5.83333 133.803 8.55 133.803 11.85C133.803 13.9167 133.42 15.7167 132.653 17.25C131.92 18.7833 130.92 19.9667 129.653 20.8C128.386 21.6333 127.036 22.25 125.603 22.65C124.17 23.05 122.67 23.25 121.103 23.25H117.353V18.85H121.653C123.886 18.85 125.636 18.1833 126.903 16.85C128.203 15.4833 128.853 13.7833 128.853 11.75C128.853 9.75 128.253 8.11667 127.053 6.85C125.886 5.55 124.203 4.9 122.003 4.9C119.87 4.9 118.186 5.63333 116.953 7.1C115.753 8.53333 115.153 10.4333 115.153 12.8V36Z" fill="black"/>
</svg>
